M48
; DRILL file KiCad 10.0.4 date 2026-07-21T01:47:33
; FORMAT={-:-/ absolute / metric / decimal}
; #@! TF.CreationDate,2026-07-21T01:47:33-04:00
; #@! TF.GenerationSoftware,Kicad,Pcbnew,10.0.4
; #@! TF.FileFunction,Plated,1,2,PTH
FMAT,2
METRIC
; #@! TA.AperFunction,Plated,PTH,ViaDrill
T1C0.254
; #@! TA.AperFunction,Plated,PTH,ViaDrill
T2C0.300
; #@! TA.AperFunction,Plated,PTH,ViaDrill
T3C0.305
; #@! TA.AperFunction,Plated,PTH,ComponentDrill
T4C0.800
; #@! TA.AperFunction,Plated,PTH,ComponentDrill
T5C2.500
%
G90
G05
T1
X145.796Y-80.01
X147.32Y-80.01
X148.082Y-75.692
X148.082Y-76.327
X148.082Y-77.089
X148.844Y-75.692
X148.844Y-76.327
X148.844Y-77.089
X149.606Y-75.692
X149.606Y-76.327
X149.606Y-77.089
X150.114Y-77.978
X150.114Y-79.248
X152.908Y-74.422
X152.908Y-75.184
X152.908Y-75.946
X154.178Y-76.454
X155.448Y-77.47
T2
X156.972Y-72.644
X156.972Y-74.422
X162.306Y-76.962
X166.878Y-76.835
X182.626Y-78.232
X182.88Y-89.916
X182.88Y-101.6
T3
X101.092Y-99.276
X101.092Y-104.756
X101.092Y-110.236
X102.616Y-112.268
X103.232Y-97.028
X105.156Y-104.756
X105.156Y-110.236
X106.426Y-112.268
X108.712Y-97.028
X113.284Y-89.916
X113.284Y-90.932
X114.192Y-97.028
X114.3Y-89.916
X114.3Y-90.932
X115.316Y-104.648
X115.316Y-107.188
X115.57Y-100.076
X116.332Y-89.916
X116.332Y-90.932
X117.348Y-89.916
X117.348Y-90.932
X117.602Y-104.394
X117.602Y-112.17
X118.872Y-101.6
X119.18Y-97.028
X119.634Y-89.916
X119.634Y-90.932
X120.65Y-89.916
X120.65Y-90.932
X121.666Y-103.378
X122.174Y-100.076
X122.936Y-89.916
X122.936Y-90.932
X123.952Y-89.916
X123.952Y-90.932
X124.66Y-97.028
X126.238Y-89.916
X126.238Y-90.932
X126.492Y-101.854
X127.254Y-89.916
X127.254Y-90.932
X128.27Y-100.076
X130.81Y-102.108
X131.572Y-103.632
X132.588Y-100.33
X135.89Y-105.918
X136.906Y-100.33
X136.906Y-108.458
X136.906Y-112.268
X141.478Y-100.33
X141.986Y-112.268
X142.748Y-105.156
X142.748Y-106.172
X142.748Y-108.204
X142.748Y-109.22
X143.764Y-105.156
X143.764Y-106.172
X143.764Y-108.204
X143.764Y-109.22
X145.542Y-100.33
X147.066Y-112.268
X147.32Y-57.658
X147.828Y-89.916
X147.828Y-90.932
X148.844Y-89.916
X148.844Y-90.932
X149.352Y-100.33
X150.876Y-89.916
X150.876Y-90.932
X151.13Y-106.426
X151.13Y-109.728
X151.892Y-89.916
X151.892Y-90.932
X152.4Y-112.522
X155.702Y-75.946
X158.242Y-76.962
X158.242Y-82.55
X158.242Y-111.252
X158.496Y-88.646
X159.512Y-77.47
X161.544Y-94.234
X161.544Y-95.25
X161.544Y-97.536
X161.544Y-98.552
X161.544Y-100.838
X161.544Y-101.854
X161.544Y-104.14
X161.544Y-105.156
X161.544Y-107.442
X161.544Y-108.458
X162.56Y-94.234
X162.56Y-95.25
X162.56Y-97.536
X162.56Y-98.552
X162.56Y-100.838
X162.56Y-101.854
X162.56Y-104.14
X162.56Y-105.156
X162.56Y-107.442
X162.56Y-108.458
X163.576Y-81.28
X163.576Y-82.296
X163.576Y-84.328
X163.576Y-85.344
X164.592Y-81.28
X164.592Y-82.296
X164.592Y-84.328
X164.592Y-85.344
X165.862Y-111.125
X166.624Y-88.9
X166.624Y-92.964
X167.132Y-109.728
X168.148Y-112.522
X170.688Y-85.852
X170.688Y-88.9
X171.45Y-76.708
X172.466Y-98.044
X172.974Y-80.772
X172.974Y-104.394
X173.228Y-92.456
X173.736Y-84.074
X173.736Y-85.09
X173.99Y-107.696
X173.99Y-108.712
X174.244Y-95.758
X174.752Y-84.074
X174.752Y-85.09
X175.006Y-107.696
X175.006Y-108.712
X175.26Y-95.758
X175.26Y-96.774
X176.276Y-92.71
X176.276Y-104.394
X176.53Y-81.026
X176.784Y-85.344
X178.562Y-86.868
X179.07Y-85.344
X179.07Y-97.028
X179.324Y-98.806
X179.324Y-108.966
X179.578Y-110.744
X180.594Y-99.06
X180.848Y-80.264
X180.848Y-87.376
X180.848Y-91.948
X180.848Y-103.632
X180.975Y-110.871
X182.118Y-95.504
X182.118Y-107.188
X182.372Y-83.82
X182.499Y-74.93
X182.753Y-99.187
X184.15Y-110.871
X184.277Y-87.122
X184.277Y-107.569
X184.404Y-83.439
X184.912Y-100.076
X184.912Y-105.41
X185.039Y-95.504
X186.182Y-111.379
X186.436Y-108.585
T4
X115.57Y-80.694
X115.57Y-84.194
T5
X105.156Y-75.692
X105.41Y-87.376
X120.624Y-109.982
X126.884Y-109.982
X133.02Y-109.982
X161.671Y-60.833
X167.259Y-60.833
X172.847Y-60.833
X178.435Y-60.833
X184.023Y-60.833
X184.023Y-66.421
M30
