%TF.GenerationSoftware,KiCad,Pcbnew,10.0.4*%
%TF.CreationDate,2026-07-21T01:47:36-04:00*%
%TF.ProjectId,burger_king_light-rounded,62757267-6572-45f6-9b69-6e675f6c6967,rev?*%
%TF.SameCoordinates,Original*%
%TF.FileFunction,Copper,L2,Bot*%
%TF.FilePolarity,Positive*%
%FSLAX46Y46*%
G04 Gerber Fmt 4.6, Leading zero omitted, Abs format (unit mm)*
G04 Created by KiCad (PCBNEW 10.0.4) date 2026-07-21 01:47:36*
%MOMM*%
%LPD*%
G01*
G04 APERTURE LIST*
G04 Aperture macros list*
%AMRoundRect*
0 Rectangle with rounded corners*
0 $1 Rounding radius*
0 $2 $3 $4 $5 $6 $7 $8 $9 X,Y pos of 4 corners*
0 Add a 4 corners polygon primitive as box body*
4,1,4,$2,$3,$4,$5,$6,$7,$8,$9,$2,$3,0*
0 Add four circle primitives for the rounded corners*
1,1,$1+$1,$2,$3*
1,1,$1+$1,$4,$5*
1,1,$1+$1,$6,$7*
1,1,$1+$1,$8,$9*
0 Add four rect primitives between the rounded corners*
20,1,$1+$1,$2,$3,$4,$5,0*
20,1,$1+$1,$4,$5,$6,$7,0*
20,1,$1+$1,$6,$7,$8,$9,0*
20,1,$1+$1,$8,$9,$2,$3,0*%
G04 Aperture macros list end*
%TA.AperFunction,ConnectorPad*%
%ADD10C,5.000000*%
%TD*%
%TA.AperFunction,ComponentPad*%
%ADD11C,2.900000*%
%TD*%
%TA.AperFunction,ComponentPad*%
%ADD12C,1.600000*%
%TD*%
%TA.AperFunction,ComponentPad*%
%ADD13RoundRect,0.250000X-0.550000X0.550000X-0.550000X-0.550000X0.550000X-0.550000X0.550000X0.550000X0*%
%TD*%
%TA.AperFunction,ViaPad*%
%ADD14C,0.711200*%
%TD*%
%TA.AperFunction,ViaPad*%
%ADD15C,0.600000*%
%TD*%
%TA.AperFunction,ViaPad*%
%ADD16C,0.609600*%
%TD*%
%TA.AperFunction,Conductor*%
%ADD17C,0.508000*%
%TD*%
%TA.AperFunction,Conductor*%
%ADD18C,0.254000*%
%TD*%
G04 APERTURE END LIST*
D10*
%TO.P,H7,1,1_1*%
%TO.N,+36V*%
X184023000Y-60833000D03*
D11*
X184023000Y-60833000D03*
%TD*%
D10*
%TO.P,H8,1,1_1*%
%TO.N,Net-(U5-OUT_1)*%
X184023000Y-66421000D03*
D11*
X184023000Y-66421000D03*
%TD*%
%TO.P,H3,1,1_1*%
%TO.N,+36V*%
X161671000Y-60833000D03*
D10*
X161671000Y-60833000D03*
%TD*%
%TO.P,H6,1,1_1*%
%TO.N,Net-(U4-OUT_1)*%
X178435000Y-60833000D03*
D11*
X178435000Y-60833000D03*
%TD*%
D10*
%TO.P,H1,1,1_1*%
%TO.N,+12V*%
X105156000Y-75692000D03*
D11*
X105156000Y-75692000D03*
%TD*%
D10*
%TO.P,RV1,3,3_3*%
%TO.N,Net-(D3-A)*%
X133020100Y-109982000D03*
D11*
X133020100Y-109982000D03*
D10*
%TO.P,RV1,2,2_2*%
%TO.N,Net-(R3-Pad2)*%
X126884100Y-109982000D03*
D11*
X126884100Y-109982000D03*
D10*
%TO.P,RV1,1,1_1*%
%TO.N,Net-(D4-K)*%
X120624100Y-109982000D03*
D11*
X120624100Y-109982000D03*
%TD*%
D10*
%TO.P,H4,1,1_1*%
%TO.N,Net-(U3-OUT_1)*%
X167259000Y-60833000D03*
D11*
X167259000Y-60833000D03*
%TD*%
D10*
%TO.P,H2,1,1_1*%
%TO.N,0*%
X105410000Y-87376000D03*
D11*
X105410000Y-87376000D03*
%TD*%
%TO.P,H5,1,1_1*%
%TO.N,+36V*%
X172847000Y-60833000D03*
D10*
X172847000Y-60833000D03*
%TD*%
D12*
%TO.P,Cbulk1,2*%
%TO.N,0*%
X115570000Y-84194149D03*
D13*
%TO.P,Cbulk1,1*%
%TO.N,+12V*%
X115570000Y-80694149D03*
%TD*%
D14*
%TO.N,0*%
X168148000Y-112522000D03*
X184277000Y-107569000D03*
X185039000Y-95504000D03*
X184912000Y-100076000D03*
X184277000Y-87122000D03*
X184404000Y-83439000D03*
X182499000Y-74930000D03*
D15*
X166878000Y-76835000D03*
X162306000Y-76962000D03*
D14*
X158496000Y-88646000D03*
X158242000Y-82550000D03*
X159512000Y-77470000D03*
X158242000Y-76962000D03*
X155702000Y-75946000D03*
D15*
%TO.N,+36V*%
X156972000Y-74422000D03*
X156972000Y-72644000D03*
D14*
%TO.N,0*%
X142748000Y-108204000D03*
X143764000Y-105156000D03*
X143764000Y-108204000D03*
X143764000Y-106172000D03*
X143764000Y-109220000D03*
X142748000Y-106172000D03*
X142748000Y-105156000D03*
X142748000Y-109220000D03*
X163576000Y-84328000D03*
X164592000Y-81280000D03*
X164592000Y-84328000D03*
X164592000Y-82296000D03*
X164592000Y-85344000D03*
X163576000Y-82296000D03*
X163576000Y-81280000D03*
X163576000Y-85344000D03*
X166624000Y-88900000D03*
X166624000Y-92964000D03*
X170688000Y-88900000D03*
X167132000Y-109728000D03*
X165862000Y-111125000D03*
X186182000Y-111379000D03*
X184150000Y-110871000D03*
X182753000Y-99187000D03*
D15*
%TO.N,Net-(U5-OUT_1)*%
X182880000Y-101600000D03*
%TO.N,Net-(U4-OUT_1)*%
X182880000Y-89916000D03*
D14*
%TO.N,0*%
X176276000Y-104394000D03*
X176530000Y-81026000D03*
X173736000Y-84074000D03*
X182372000Y-83820000D03*
X179070000Y-85344000D03*
X175006000Y-107696000D03*
X170688000Y-85852000D03*
X180848000Y-87376000D03*
X173736000Y-85090000D03*
X186436000Y-108585000D03*
X172466000Y-98044000D03*
X180594000Y-99060000D03*
X171450000Y-76708000D03*
X174752000Y-85090000D03*
X179578000Y-110744000D03*
X179324000Y-98806000D03*
X180848000Y-103632000D03*
X172974000Y-80772000D03*
X182118000Y-107188000D03*
X180848000Y-91948000D03*
X174244000Y-95758000D03*
X175260000Y-95758000D03*
X179324000Y-108966000D03*
D15*
%TO.N,Net-(U3-OUT_1)*%
X182626000Y-78232000D03*
D14*
%TO.N,0*%
X178562000Y-86868000D03*
X176784000Y-85344000D03*
X180848000Y-80264000D03*
X179070000Y-97028000D03*
X180975000Y-110871000D03*
X172974000Y-104394000D03*
X175006000Y-108712000D03*
X173228000Y-92456000D03*
X184912000Y-105410000D03*
X175260000Y-96774000D03*
X174752000Y-84074000D03*
X173990000Y-108712000D03*
X173990000Y-107696000D03*
X182118000Y-95504000D03*
X176276000Y-92710000D03*
D16*
X148844000Y-75692000D03*
D14*
X117348000Y-90932000D03*
X161544000Y-97536000D03*
X161544000Y-104140000D03*
X128270000Y-100076000D03*
X136906000Y-108458000D03*
X122174000Y-100076000D03*
X108712000Y-97028000D03*
X114300000Y-89916000D03*
X126238000Y-90932000D03*
X120650000Y-89916000D03*
X118872000Y-101600000D03*
X162560000Y-105156000D03*
X161544000Y-108458000D03*
X136906000Y-112268000D03*
X162560000Y-107442000D03*
X141478000Y-100330000D03*
X103232000Y-97028000D03*
D16*
X150114000Y-77978000D03*
D14*
X161544000Y-98552000D03*
D16*
X155448000Y-77470000D03*
D14*
X101092000Y-99276000D03*
X161544000Y-94234000D03*
X105156000Y-110236000D03*
X135890000Y-105918000D03*
X161544000Y-101854000D03*
X113284000Y-90932000D03*
X145542000Y-100330000D03*
X115570000Y-100076000D03*
X115316000Y-104648000D03*
X161544000Y-95250000D03*
X119180000Y-97028000D03*
X123952000Y-89916000D03*
X161544000Y-100838000D03*
X158242000Y-111252000D03*
D16*
X148082000Y-75692000D03*
D14*
X106426000Y-112268000D03*
X120650000Y-90932000D03*
X122936000Y-90932000D03*
X149352000Y-100330000D03*
X162560000Y-95250000D03*
X126238000Y-89916000D03*
X115316000Y-107188000D03*
D16*
X147320000Y-80010000D03*
D14*
X162560000Y-100838000D03*
X105156000Y-104756000D03*
X113284000Y-89916000D03*
X152400000Y-112522000D03*
X117602000Y-104394000D03*
X123952000Y-90932000D03*
X147828000Y-90932000D03*
X116332000Y-89916000D03*
D16*
X148844000Y-77089000D03*
D14*
X161544000Y-107442000D03*
X127254000Y-89916000D03*
X150876000Y-90932000D03*
X124660000Y-97028000D03*
X147066000Y-112268000D03*
X102616000Y-112268000D03*
X117348000Y-89916000D03*
X162560000Y-101854000D03*
X161544000Y-105156000D03*
X162560000Y-108458000D03*
X147320000Y-57658000D03*
X162560000Y-104140000D03*
X126492000Y-101854000D03*
D16*
X149606000Y-76327000D03*
D14*
X148844000Y-90932000D03*
X117602000Y-112170400D03*
X151892000Y-89916000D03*
D16*
X148844000Y-76327000D03*
D14*
X162560000Y-97536000D03*
X151892000Y-90932000D03*
D16*
X152908000Y-74422000D03*
X149606000Y-77089000D03*
X145796000Y-80010000D03*
D14*
X101092000Y-104756000D03*
D16*
X154178000Y-76454000D03*
D14*
X101092000Y-110236000D03*
X132588000Y-100330000D03*
X121666000Y-103378000D03*
D16*
X152908000Y-75946000D03*
D14*
X148844000Y-89916000D03*
X141986000Y-112268000D03*
X147828000Y-89916000D03*
X114192000Y-97028000D03*
D16*
X148082000Y-76327000D03*
D14*
X122936000Y-89916000D03*
X119634000Y-89916000D03*
X162560000Y-94234000D03*
D16*
X148082000Y-77089000D03*
D14*
X151130000Y-109728000D03*
X162560000Y-98552000D03*
X131572000Y-103632000D03*
X130810000Y-102108000D03*
D16*
X150114000Y-79248000D03*
D14*
X119634000Y-90932000D03*
D16*
X149606000Y-75692000D03*
X152908000Y-75184000D03*
D14*
X127254000Y-90932000D03*
X136906000Y-100330000D03*
X151130000Y-106426000D03*
X116332000Y-90932000D03*
X150876000Y-89916000D03*
X114300000Y-90932000D03*
%TD*%
%TO.N,Net-(U4-OUT_1)*%
D17*
X182377248Y-69100616D02*
X181594794Y-68318155D01*
X180848000Y-65408684D02*
X180847996Y-66515204D01*
%TO.N,Net-(U3-OUT_1)*%
X170364207Y-62668207D02*
G75*
G03*
X174211963Y-64262011I3847793J3847807D01*
G01*
X184812000Y-77824000D02*
G75*
G02*
X183827000Y-78232000I-985000J985000D01*
G01*
X185220000Y-76839000D02*
G75*
G02*
X184812000Y-77824000I-1393000J0D01*
G01*
X183641737Y-71373737D02*
G75*
G02*
X185220007Y-75184000I-3810237J-3810263D01*
G01*
X178123792Y-65855792D02*
G75*
G03*
X174276036Y-64261989I-3847792J-3847808D01*
G01*
X167565605Y-59869605D02*
G75*
G03*
X167385983Y-59944000I-74405J-74395D01*
G01*
%TO.N,Net-(U4-OUT_1)*%
X179641500Y-62039500D02*
G75*
G02*
X180848021Y-64952248I-2912800J-2912800D01*
G01*
X184334207Y-71057575D02*
G75*
G02*
X185927963Y-74905331I-3847807J-3847725D01*
G01*
X180847996Y-66515204D02*
G75*
G03*
X181594791Y-68318158I2549804J4D01*
G01*
X185928000Y-84712738D02*
G75*
G02*
X184403989Y-88391989I-5203300J38D01*
G01*
%TO.N,Net-(U5-OUT_1)*%
X186030000Y-100990000D02*
G75*
G02*
X184557329Y-101600012I-1472700J1472700D01*
G01*
X186640000Y-99517329D02*
G75*
G02*
X186029991Y-100989991I-2082700J29D01*
G01*
X185395000Y-66523000D02*
G75*
G02*
X186640002Y-69528695I-3005700J-3005700D01*
G01*
%TO.N,Net-(U3-OUT_1)*%
X183827000Y-78232000D02*
X182626000Y-78232000D01*
X183641737Y-71373737D02*
X178123792Y-65855792D01*
X174211963Y-64262000D02*
X174276036Y-64262000D01*
X170364207Y-62668207D02*
X167565605Y-59869605D01*
X167386000Y-59944000D02*
X167386000Y-60198000D01*
X185220000Y-76839000D02*
X185220000Y-75184000D01*
%TO.N,Net-(U4-OUT_1)*%
X182880000Y-89916000D02*
X184404000Y-88392000D01*
X185928000Y-74905331D02*
X185928000Y-84712738D01*
X184334207Y-71057575D02*
X182377248Y-69100616D01*
X180848000Y-64952248D02*
X180848000Y-65408684D01*
X179641500Y-62039500D02*
X178435000Y-60833000D01*
%TO.N,+36V*%
D18*
X156972000Y-72644000D02*
X156972000Y-74422000D01*
%TO.N,Net-(U5-OUT_1)*%
D17*
X182880000Y-101600000D02*
X184557329Y-101600000D01*
X186640000Y-99517329D02*
X186640000Y-69528695D01*
X185395000Y-66523000D02*
X184150000Y-65278000D01*
%TD*%
%TA.AperFunction,Conductor*%
%TO.N,0*%
G36*
X154941211Y-56966502D02*
G01*
X154979765Y-57005445D01*
X160020000Y-65024000D01*
X173978897Y-65024000D01*
X173987880Y-65024321D01*
X173990384Y-65024500D01*
X173990385Y-65024500D01*
X174136863Y-65024500D01*
X174195894Y-65024500D01*
X174273288Y-65024500D01*
X174278784Y-65024620D01*
X174678346Y-65042065D01*
X174689295Y-65043022D01*
X175083111Y-65094869D01*
X175093895Y-65096771D01*
X175481709Y-65182748D01*
X175492296Y-65185585D01*
X175871113Y-65305025D01*
X175881442Y-65308784D01*
X176248405Y-65460785D01*
X176258367Y-65465431D01*
X176610681Y-65648834D01*
X176620190Y-65654323D01*
X176881095Y-65820537D01*
X176955183Y-65867737D01*
X176964187Y-65874041D01*
X177279312Y-66115844D01*
X177287732Y-66122910D01*
X177582603Y-66393110D01*
X177586574Y-66396912D01*
X183100616Y-71910954D01*
X183104418Y-71914925D01*
X183371493Y-72206386D01*
X183378558Y-72214806D01*
X183617546Y-72526261D01*
X183623846Y-72535257D01*
X183790292Y-72796526D01*
X183834775Y-72866350D01*
X183840271Y-72875870D01*
X184021533Y-73224071D01*
X184026179Y-73234033D01*
X184176412Y-73596728D01*
X184180171Y-73607057D01*
X184298217Y-73981451D01*
X184301062Y-73992069D01*
X184386028Y-74375325D01*
X184387937Y-74386150D01*
X184439177Y-74775361D01*
X184440135Y-74786310D01*
X184457380Y-75181250D01*
X184457500Y-75186747D01*
X184457500Y-76832811D01*
X184456893Y-76845162D01*
X184446601Y-76949650D01*
X184441783Y-76973874D01*
X184413107Y-77068408D01*
X184403654Y-77091230D01*
X184357089Y-77178346D01*
X184343367Y-77198882D01*
X184280707Y-77275234D01*
X184263241Y-77292700D01*
X184186880Y-77355368D01*
X184166342Y-77369091D01*
X184079229Y-77415654D01*
X184056408Y-77425107D01*
X183961874Y-77453783D01*
X183937650Y-77458601D01*
X183845633Y-77467664D01*
X183833160Y-77468893D01*
X183820812Y-77469500D01*
X182922939Y-77469500D01*
X182874721Y-77459909D01*
X182861837Y-77454572D01*
X182861831Y-77454570D01*
X182705632Y-77423500D01*
X182705630Y-77423500D01*
X182546370Y-77423500D01*
X182546367Y-77423500D01*
X182429219Y-77446802D01*
X182390169Y-77454570D01*
X182243032Y-77515517D01*
X182110609Y-77603998D01*
X182110603Y-77604003D01*
X181998003Y-77716603D01*
X181997998Y-77716609D01*
X181909517Y-77849032D01*
X181848571Y-77996167D01*
X181848570Y-77996170D01*
X181817500Y-78152367D01*
X181817500Y-78311632D01*
X181833035Y-78389730D01*
X181848570Y-78467831D01*
X181909517Y-78614968D01*
X181985386Y-78728515D01*
X181997998Y-78747390D01*
X181998003Y-78747396D01*
X182110603Y-78859996D01*
X182110609Y-78860001D01*
X182110611Y-78860003D01*
X182243032Y-78948483D01*
X182390169Y-79009430D01*
X182546370Y-79040500D01*
X182546371Y-79040500D01*
X182705629Y-79040500D01*
X182705630Y-79040500D01*
X182861831Y-79009430D01*
X182870580Y-79005805D01*
X182874721Y-79004091D01*
X182922939Y-78994500D01*
X183948053Y-78994500D01*
X184009151Y-78987615D01*
X184188629Y-78967393D01*
X184424659Y-78913520D01*
X184653173Y-78833560D01*
X184871298Y-78728516D01*
X184972466Y-78664948D01*
X185040786Y-78645644D01*
X185108699Y-78666340D01*
X185154642Y-78720467D01*
X185165500Y-78771637D01*
X185165500Y-84709990D01*
X185165380Y-84715487D01*
X185148840Y-85094281D01*
X185147882Y-85105230D01*
X185098752Y-85478414D01*
X185096843Y-85489239D01*
X185015374Y-85856722D01*
X185012529Y-85867340D01*
X184899344Y-86226316D01*
X184895585Y-86236645D01*
X184751537Y-86584408D01*
X184746891Y-86594370D01*
X184573092Y-86928235D01*
X184567596Y-86937755D01*
X184365355Y-87255210D01*
X184359051Y-87264214D01*
X184129903Y-87562846D01*
X184122837Y-87571266D01*
X183866681Y-87850811D01*
X183862879Y-87854782D01*
X182550796Y-89166864D01*
X182509926Y-89194175D01*
X182497034Y-89199515D01*
X182497032Y-89199516D01*
X182364609Y-89287998D01*
X182364603Y-89288003D01*
X182252003Y-89400603D01*
X182251998Y-89400609D01*
X182163517Y-89533032D01*
X182102571Y-89680167D01*
X182102570Y-89680170D01*
X182071500Y-89836367D01*
X182071500Y-89836370D01*
X182071500Y-89995630D01*
X182102570Y-90151831D01*
X182163517Y-90298968D01*
X182251997Y-90431389D01*
X182251998Y-90431390D01*
X182252003Y-90431396D01*
X182364603Y-90543996D01*
X182364609Y-90544001D01*
X182364611Y-90544003D01*
X182497032Y-90632483D01*
X182644169Y-90693430D01*
X182800370Y-90724500D01*
X182800371Y-90724500D01*
X182959629Y-90724500D01*
X182959630Y-90724500D01*
X183115831Y-90693430D01*
X183262968Y-90632483D01*
X183395389Y-90544003D01*
X183508003Y-90431389D01*
X183596483Y-90298968D01*
X183601820Y-90286083D01*
X183629131Y-90245205D01*
X184996272Y-88878066D01*
X185093831Y-88780507D01*
X185372890Y-88458455D01*
X185628264Y-88117316D01*
X185645501Y-88090493D01*
X185699156Y-88044000D01*
X185769430Y-88033895D01*
X185834011Y-88063387D01*
X185872396Y-88123113D01*
X185877500Y-88158613D01*
X185877500Y-99513206D01*
X185877230Y-99521447D01*
X185866746Y-99681401D01*
X185864595Y-99697742D01*
X185834126Y-99850918D01*
X185829860Y-99866837D01*
X185779664Y-100014712D01*
X185773357Y-100029940D01*
X185704279Y-100170015D01*
X185696038Y-100184288D01*
X185609283Y-100314126D01*
X185599250Y-100327201D01*
X185496277Y-100444620D01*
X185484622Y-100456275D01*
X185367201Y-100559250D01*
X185354126Y-100569283D01*
X185289207Y-100612660D01*
X185224284Y-100656040D01*
X185210015Y-100664279D01*
X185069940Y-100733357D01*
X185054712Y-100739664D01*
X184906837Y-100789860D01*
X184890918Y-100794126D01*
X184737742Y-100824595D01*
X184721401Y-100826746D01*
X184561447Y-100837230D01*
X184553206Y-100837500D01*
X183176939Y-100837500D01*
X183128721Y-100827909D01*
X183115837Y-100822572D01*
X183115831Y-100822570D01*
X182959632Y-100791500D01*
X182959630Y-100791500D01*
X182800370Y-100791500D01*
X182800367Y-100791500D01*
X182683219Y-100814802D01*
X182644169Y-100822570D01*
X182497032Y-100883517D01*
X182364609Y-100971998D01*
X182364603Y-100972003D01*
X182252003Y-101084603D01*
X182251998Y-101084609D01*
X182163517Y-101217032D01*
X182102571Y-101364167D01*
X182102570Y-101364170D01*
X182071500Y-101520367D01*
X182071500Y-101520370D01*
X182071500Y-101679630D01*
X182102570Y-101835831D01*
X182163517Y-101982968D01*
X182251997Y-102115389D01*
X182251998Y-102115390D01*
X182252003Y-102115396D01*
X182364603Y-102227996D01*
X182364609Y-102228001D01*
X182364611Y-102228003D01*
X182497032Y-102316483D01*
X182644169Y-102377430D01*
X182800370Y-102408500D01*
X182800371Y-102408500D01*
X182959629Y-102408500D01*
X182959630Y-102408500D01*
X183115831Y-102377430D01*
X183124580Y-102373805D01*
X183128721Y-102372091D01*
X183176939Y-102362500D01*
X184697095Y-102362500D01*
X184697104Y-102362500D01*
X184975306Y-102335099D01*
X185207578Y-102288897D01*
X185249469Y-102280565D01*
X185249471Y-102280564D01*
X185249483Y-102280562D01*
X185516994Y-102199413D01*
X185775263Y-102092434D01*
X186021803Y-101960656D01*
X186254239Y-101805348D01*
X186470333Y-101628005D01*
X186569168Y-101529170D01*
X186625837Y-101472501D01*
X186668005Y-101430333D01*
X186670101Y-101427778D01*
X186728774Y-101387811D01*
X186799745Y-101385908D01*
X186860479Y-101422677D01*
X186891692Y-101486444D01*
X186893500Y-101507712D01*
X186893500Y-112513741D01*
X186892422Y-112530187D01*
X186892422Y-112530188D01*
X186880076Y-112623960D01*
X186871562Y-112655732D01*
X186838551Y-112735426D01*
X186822106Y-112763911D01*
X186769599Y-112832340D01*
X186746340Y-112855599D01*
X186677911Y-112908106D01*
X186649426Y-112924551D01*
X186569732Y-112957562D01*
X186537960Y-112966076D01*
X186458995Y-112976472D01*
X186444186Y-112978422D01*
X186427741Y-112979500D01*
X134281654Y-112979500D01*
X134213533Y-112959498D01*
X134167040Y-112905842D01*
X134156936Y-112835568D01*
X134186430Y-112770988D01*
X134226984Y-112739978D01*
X134236436Y-112735426D01*
X134477661Y-112619258D01*
X134763775Y-112439481D01*
X135027962Y-112228799D01*
X135266899Y-111989862D01*
X135477581Y-111725675D01*
X135657358Y-111439561D01*
X135803971Y-111135117D01*
X135915575Y-110816172D01*
X135990766Y-110486736D01*
X136028600Y-110150954D01*
X136028600Y-109813046D01*
X135990766Y-109477264D01*
X135915575Y-109147828D01*
X135803971Y-108828883D01*
X135657358Y-108524439D01*
X135477581Y-108238325D01*
X135266899Y-107974138D01*
X135266896Y-107974134D01*
X135027965Y-107735203D01*
X134763775Y-107524519D01*
X134477665Y-107344744D01*
X134477656Y-107344739D01*
X134173226Y-107198133D01*
X134173221Y-107198131D01*
X134173217Y-107198129D01*
X134173211Y-107198126D01*
X134173199Y-107198122D01*
X133854278Y-107086526D01*
X133524839Y-107011334D01*
X133189056Y-106973500D01*
X133189054Y-106973500D01*
X132851146Y-106973500D01*
X132851144Y-106973500D01*
X132515360Y-107011334D01*
X132185921Y-107086526D01*
X131867000Y-107198122D01*
X131866973Y-107198133D01*
X131562543Y-107344739D01*
X131562534Y-107344744D01*
X131276424Y-107524519D01*
X131012234Y-107735203D01*
X130773303Y-107974134D01*
X130562619Y-108238324D01*
X130382844Y-108524434D01*
X130382839Y-108524443D01*
X130236233Y-108828873D01*
X130236222Y-108828900D01*
X130124626Y-109147821D01*
X130074941Y-109365509D01*
X130040282Y-109427471D01*
X129977626Y-109460858D01*
X129906866Y-109455071D01*
X129850467Y-109411947D01*
X129829259Y-109365509D01*
X129824745Y-109345736D01*
X129779575Y-109147828D01*
X129667971Y-108828883D01*
X129521358Y-108524439D01*
X129341581Y-108238325D01*
X129130899Y-107974138D01*
X129130896Y-107974134D01*
X128891965Y-107735203D01*
X128627775Y-107524519D01*
X128341665Y-107344744D01*
X128341656Y-107344739D01*
X128037226Y-107198133D01*
X128037221Y-107198131D01*
X128037217Y-107198129D01*
X128037211Y-107198126D01*
X128037199Y-107198122D01*
X127718278Y-107086526D01*
X127388839Y-107011334D01*
X127053056Y-106973500D01*
X127053054Y-106973500D01*
X126715146Y-106973500D01*
X126715144Y-106973500D01*
X126379360Y-107011334D01*
X126049921Y-107086526D01*
X125731000Y-107198122D01*
X125730973Y-107198133D01*
X125426543Y-107344739D01*
X125426534Y-107344744D01*
X125140424Y-107524519D01*
X124876234Y-107735203D01*
X124637303Y-107974134D01*
X124426619Y-108238324D01*
X124246844Y-108524434D01*
X124246839Y-108524443D01*
X124100233Y-108828873D01*
X124100222Y-108828900D01*
X123988626Y-109147821D01*
X123913434Y-109477260D01*
X123879308Y-109780135D01*
X123851804Y-109845588D01*
X123793280Y-109885781D01*
X123722317Y-109887953D01*
X123661444Y-109851414D01*
X123629989Y-109787766D01*
X123628892Y-109780135D01*
X123619015Y-109692482D01*
X123594766Y-109477264D01*
X123519575Y-109147828D01*
X123407971Y-108828883D01*
X123261358Y-108524439D01*
X123081581Y-108238325D01*
X122870899Y-107974138D01*
X122870896Y-107974134D01*
X122631965Y-107735203D01*
X122367775Y-107524519D01*
X122081665Y-107344744D01*
X122081656Y-107344739D01*
X121777226Y-107198133D01*
X121777221Y-107198131D01*
X121777217Y-107198129D01*
X121777211Y-107198126D01*
X121777199Y-107198122D01*
X121458278Y-107086526D01*
X121128839Y-107011334D01*
X120793056Y-106973500D01*
X120793054Y-106973500D01*
X120455146Y-106973500D01*
X120455144Y-106973500D01*
X120119360Y-107011334D01*
X119789921Y-107086526D01*
X119471000Y-107198122D01*
X119470973Y-107198133D01*
X119166543Y-107344739D01*
X119166534Y-107344744D01*
X118880424Y-107524519D01*
X118616234Y-107735203D01*
X118377303Y-107974134D01*
X118166619Y-108238324D01*
X117986844Y-108524434D01*
X117986839Y-108524443D01*
X117840233Y-108828873D01*
X117840222Y-108828900D01*
X117728626Y-109147821D01*
X117653434Y-109477260D01*
X117615600Y-109813044D01*
X117615600Y-110150955D01*
X117653434Y-110486739D01*
X117677366Y-110591591D01*
X117728625Y-110816172D01*
X117728627Y-110816178D01*
X117728626Y-110816178D01*
X117840222Y-111135099D01*
X117840233Y-111135126D01*
X117986839Y-111439556D01*
X117986844Y-111439565D01*
X118166619Y-111725675D01*
X118377303Y-111989865D01*
X118616234Y-112228796D01*
X118705521Y-112300000D01*
X118880425Y-112439481D01*
X119166539Y-112619258D01*
X119407764Y-112735426D01*
X119417216Y-112739978D01*
X119469912Y-112787556D01*
X119488520Y-112856070D01*
X119467132Y-112923769D01*
X119412539Y-112969158D01*
X119362546Y-112979500D01*
X100338259Y-112979500D01*
X100321813Y-112978422D01*
X100303314Y-112975986D01*
X100228039Y-112966076D01*
X100196267Y-112957562D01*
X100116573Y-112924551D01*
X100088088Y-112908106D01*
X100085137Y-112905842D01*
X100019658Y-112855598D01*
X99996400Y-112832340D01*
X99943891Y-112763908D01*
X99927448Y-112735426D01*
X99894437Y-112655732D01*
X99885923Y-112623959D01*
X99873578Y-112530187D01*
X99872500Y-112513741D01*
X99872500Y-96138000D01*
X99892502Y-96069879D01*
X99946158Y-96023386D01*
X99998500Y-96012000D01*
X155322000Y-96012000D01*
X155390121Y-96032002D01*
X155436614Y-96085658D01*
X155448000Y-96138000D01*
X155448000Y-111252000D01*
X156464000Y-111252000D01*
X156464000Y-94996000D01*
X99998500Y-94996000D01*
X99930379Y-94975998D01*
X99883886Y-94922342D01*
X99872500Y-94870000D01*
X99872500Y-80093595D01*
X114261500Y-80093595D01*
X114261500Y-81294693D01*
X114272112Y-81398574D01*
X114327885Y-81566887D01*
X114420970Y-81717801D01*
X114420975Y-81717807D01*
X114546341Y-81843173D01*
X114546347Y-81843178D01*
X114546348Y-81843179D01*
X114697262Y-81936264D01*
X114865574Y-81992036D01*
X114969455Y-82002649D01*
X116170544Y-82002648D01*
X116274426Y-81992036D01*
X116442738Y-81936264D01*
X116593652Y-81843179D01*
X116719030Y-81717801D01*
X116812115Y-81566887D01*
X116867887Y-81398575D01*
X116878500Y-81294694D01*
X116878499Y-80093605D01*
X116867887Y-79989723D01*
X116812115Y-79821411D01*
X116719030Y-79670497D01*
X116719029Y-79670496D01*
X116719024Y-79670490D01*
X116593658Y-79545124D01*
X116593652Y-79545119D01*
X116442738Y-79452034D01*
X116358582Y-79424148D01*
X116274427Y-79396262D01*
X116274420Y-79396261D01*
X116170553Y-79385649D01*
X114969455Y-79385649D01*
X114865574Y-79396261D01*
X114697261Y-79452034D01*
X114546347Y-79545119D01*
X114546341Y-79545124D01*
X114420975Y-79670490D01*
X114420970Y-79670496D01*
X114327885Y-79821411D01*
X114272113Y-79989721D01*
X114272112Y-79989728D01*
X114261500Y-80093595D01*
X99872500Y-80093595D01*
X99872500Y-75523044D01*
X102147500Y-75523044D01*
X102147500Y-75860955D01*
X102185334Y-76196739D01*
X102224479Y-76368243D01*
X102260525Y-76526172D01*
X102260527Y-76526178D01*
X102260526Y-76526178D01*
X102372122Y-76845099D01*
X102372133Y-76845126D01*
X102518739Y-77149556D01*
X102518744Y-77149565D01*
X102698519Y-77435675D01*
X102909203Y-77699865D01*
X103148134Y-77938796D01*
X103148138Y-77938799D01*
X103412325Y-78149481D01*
X103698439Y-78329258D01*
X104002883Y-78475871D01*
X104002899Y-78475876D01*
X104002900Y-78475877D01*
X104321821Y-78587473D01*
X104321824Y-78587473D01*
X104321828Y-78587475D01*
X104651264Y-78662666D01*
X104889363Y-78689493D01*
X104987044Y-78700500D01*
X104987046Y-78700500D01*
X105324956Y-78700500D01*
X105410232Y-78690891D01*
X105660736Y-78662666D01*
X105990172Y-78587475D01*
X106309117Y-78475871D01*
X106613561Y-78329258D01*
X106899675Y-78149481D01*
X107163862Y-77938799D01*
X107402799Y-77699862D01*
X107613481Y-77435675D01*
X107793258Y-77149561D01*
X107939871Y-76845117D01*
X108051475Y-76526172D01*
X108126666Y-76196736D01*
X108164500Y-75860954D01*
X108164500Y-75523046D01*
X108126666Y-75187264D01*
X108051475Y-74857828D01*
X108032978Y-74804968D01*
X107939877Y-74538900D01*
X107939876Y-74538899D01*
X107939871Y-74538883D01*
X107793258Y-74234439D01*
X107613481Y-73948325D01*
X107402799Y-73684138D01*
X107402796Y-73684134D01*
X107163865Y-73445203D01*
X106899675Y-73234519D01*
X106613565Y-73054744D01*
X106613556Y-73054739D01*
X106309126Y-72908133D01*
X106309121Y-72908131D01*
X106309117Y-72908129D01*
X106309111Y-72908126D01*
X106309099Y-72908122D01*
X105990178Y-72796526D01*
X105660739Y-72721334D01*
X105324956Y-72683500D01*
X105324954Y-72683500D01*
X104987046Y-72683500D01*
X104987044Y-72683500D01*
X104651260Y-72721334D01*
X104321821Y-72796526D01*
X104002900Y-72908122D01*
X104002873Y-72908133D01*
X103698443Y-73054739D01*
X103698434Y-73054744D01*
X103412324Y-73234519D01*
X103148134Y-73445203D01*
X102909203Y-73684134D01*
X102698519Y-73948324D01*
X102518744Y-74234434D01*
X102518739Y-74234443D01*
X102372133Y-74538873D01*
X102372122Y-74538900D01*
X102260526Y-74857821D01*
X102185334Y-75187260D01*
X102147500Y-75523044D01*
X99872500Y-75523044D01*
X99872500Y-72564367D01*
X156163500Y-72564367D01*
X156163500Y-72564370D01*
X156163500Y-72723630D01*
X156194570Y-72879831D01*
X156255517Y-73026968D01*
X156315265Y-73116387D01*
X156336480Y-73184140D01*
X156336500Y-73186389D01*
X156336500Y-73879609D01*
X156316498Y-73947730D01*
X156315266Y-73949610D01*
X156255516Y-74039033D01*
X156194571Y-74186167D01*
X156194570Y-74186170D01*
X156163500Y-74342367D01*
X156163500Y-74342370D01*
X156163500Y-74501630D01*
X156194570Y-74657831D01*
X156255517Y-74804968D01*
X156290832Y-74857821D01*
X156343998Y-74937390D01*
X156344003Y-74937396D01*
X156456603Y-75049996D01*
X156456609Y-75050001D01*
X156456611Y-75050003D01*
X156589032Y-75138483D01*
X156736169Y-75199430D01*
X156892370Y-75230500D01*
X156892371Y-75230500D01*
X157051629Y-75230500D01*
X157051630Y-75230500D01*
X157207831Y-75199430D01*
X157354968Y-75138483D01*
X157487389Y-75050003D01*
X157600003Y-74937389D01*
X157688483Y-74804968D01*
X157749430Y-74657831D01*
X157780500Y-74501630D01*
X157780500Y-74342370D01*
X157749430Y-74186169D01*
X157688483Y-74039032D01*
X157628734Y-73949610D01*
X157607520Y-73881857D01*
X157607500Y-73879609D01*
X157607500Y-73186389D01*
X157627502Y-73118268D01*
X157628735Y-73116387D01*
X157688483Y-73026968D01*
X157749430Y-72879831D01*
X157780500Y-72723630D01*
X157780500Y-72564370D01*
X157749430Y-72408169D01*
X157688483Y-72261032D01*
X157600003Y-72128611D01*
X157600001Y-72128609D01*
X157599996Y-72128603D01*
X157487396Y-72016003D01*
X157487390Y-72015998D01*
X157487389Y-72015997D01*
X157354968Y-71927517D01*
X157207831Y-71866570D01*
X157129730Y-71851035D01*
X157051632Y-71835500D01*
X157051630Y-71835500D01*
X156892370Y-71835500D01*
X156892367Y-71835500D01*
X156788117Y-71856237D01*
X156736169Y-71866570D01*
X156736167Y-71866571D01*
X156589032Y-71927517D01*
X156456609Y-72015998D01*
X156456603Y-72016003D01*
X156344003Y-72128603D01*
X156343998Y-72128609D01*
X156255517Y-72261032D01*
X156194571Y-72408167D01*
X156194570Y-72408170D01*
X156163500Y-72564367D01*
X99872500Y-72564367D01*
X99872500Y-57412257D01*
X99873578Y-57395811D01*
X99873785Y-57394234D01*
X99885924Y-57302035D01*
X99894437Y-57270266D01*
X99927448Y-57190573D01*
X99943889Y-57162094D01*
X99996404Y-57093654D01*
X100019654Y-57070404D01*
X100088094Y-57017889D01*
X100116573Y-57001448D01*
X100196267Y-56968437D01*
X100228036Y-56959923D01*
X100321813Y-56947578D01*
X100338259Y-56946500D01*
X100397815Y-56946500D01*
X154873090Y-56946500D01*
X154941211Y-56966502D01*
G37*
%TD.AperFunction*%
%TD*%
M02*
