%TF.GenerationSoftware,KiCad,Pcbnew,10.0.4*%
%TF.CreationDate,2026-07-21T01:47:36-04:00*%
%TF.ProjectId,burger_king_light-rounded,62757267-6572-45f6-9b69-6e675f6c6967,rev?*%
%TF.SameCoordinates,Original*%
%TF.FileFunction,Paste,Top*%
%TF.FilePolarity,Positive*%
%FSLAX46Y46*%
G04 Gerber Fmt 4.6, Leading zero omitted, Abs format (unit mm)*
G04 Created by KiCad (PCBNEW 10.0.4) date 2026-07-21 01:47:36*
%MOMM*%
%LPD*%
G01*
G04 APERTURE LIST*
G04 Aperture macros list*
%AMRoundRect*
0 Rectangle with rounded corners*
0 $1 Rounding radius*
0 $2 $3 $4 $5 $6 $7 $8 $9 X,Y pos of 4 corners*
0 Add a 4 corners polygon primitive as box body*
4,1,4,$2,$3,$4,$5,$6,$7,$8,$9,$2,$3,0*
0 Add four circle primitives for the rounded corners*
1,1,$1+$1,$2,$3*
1,1,$1+$1,$4,$5*
1,1,$1+$1,$6,$7*
1,1,$1+$1,$8,$9*
0 Add four rect primitives between the rounded corners*
20,1,$1+$1,$2,$3,$4,$5,0*
20,1,$1+$1,$4,$5,$6,$7,0*
20,1,$1+$1,$6,$7,$8,$9,0*
20,1,$1+$1,$8,$9,$2,$3,0*%
G04 Aperture macros list end*
%ADD10RoundRect,0.250000X0.250000X0.475000X-0.250000X0.475000X-0.250000X-0.475000X0.250000X-0.475000X0*%
%ADD11RoundRect,0.250000X-0.475000X0.250000X-0.475000X-0.250000X0.475000X-0.250000X0.475000X0.250000X0*%
%ADD12R,0.650000X1.525000*%
%ADD13R,2.290000X2.290000*%
%ADD14RoundRect,0.250000X-0.625000X0.312500X-0.625000X-0.312500X0.625000X-0.312500X0.625000X0.312500X0*%
%ADD15RoundRect,0.249999X-1.450001X0.450001X-1.450001X-0.450001X1.450001X-0.450001X1.450001X0.450001X0*%
%ADD16RoundRect,0.249999X-0.450001X-1.450001X0.450001X-1.450001X0.450001X1.450001X-0.450001X1.450001X0*%
%ADD17RoundRect,0.250000X-0.312500X-0.625000X0.312500X-0.625000X0.312500X0.625000X-0.312500X0.625000X0*%
%ADD18RoundRect,0.250000X0.650000X-0.325000X0.650000X0.325000X-0.650000X0.325000X-0.650000X-0.325000X0*%
%ADD19R,3.850000X5.200000*%
%ADD20R,2.460000X2.310000*%
%ADD21R,1.475000X0.450000*%
%ADD22RoundRect,0.250000X-1.000000X1.400000X-1.000000X-1.400000X1.000000X-1.400000X1.000000X1.400000X0*%
%ADD23RoundRect,0.250000X0.325000X0.650000X-0.325000X0.650000X-0.325000X-0.650000X0.325000X-0.650000X0*%
%ADD24RoundRect,0.250000X0.312500X0.625000X-0.312500X0.625000X-0.312500X-0.625000X0.312500X-0.625000X0*%
%ADD25R,1.200000X1.200000*%
%ADD26RoundRect,0.250000X-0.550000X1.250000X-0.550000X-1.250000X0.550000X-1.250000X0.550000X1.250000X0*%
%ADD27RoundRect,0.249999X0.450001X1.450001X-0.450001X1.450001X-0.450001X-1.450001X0.450001X-1.450001X0*%
%ADD28RoundRect,0.250000X-0.250000X-0.475000X0.250000X-0.475000X0.250000X0.475000X-0.250000X0.475000X0*%
%ADD29RoundRect,0.250000X0.300000X-0.300000X0.300000X0.300000X-0.300000X0.300000X-0.300000X-0.300000X0*%
%ADD30RoundRect,0.250000X-0.325000X-0.650000X0.325000X-0.650000X0.325000X0.650000X-0.325000X0.650000X0*%
%ADD31RoundRect,0.150000X0.150000X-0.825000X0.150000X0.825000X-0.150000X0.825000X-0.150000X-0.825000X0*%
%ADD32RoundRect,0.250000X-0.300000X0.300000X-0.300000X-0.300000X0.300000X-0.300000X0.300000X0.300000X0*%
%ADD33RoundRect,0.250000X0.625000X-0.312500X0.625000X0.312500X-0.625000X0.312500X-0.625000X-0.312500X0*%
G04 APERTURE END LIST*
D10*
%TO.C,Cled2*%
X182814000Y-109220000D03*
X180914000Y-109220000D03*
%TD*%
D11*
%TO.C,Cledout2*%
X182880000Y-91506000D03*
X182880000Y-93406000D03*
%TD*%
D12*
%TO.C,U4*%
X180721000Y-89744000D03*
X179451000Y-89744000D03*
X178181000Y-89744000D03*
X176911000Y-89744000D03*
X176911000Y-95168000D03*
X178181000Y-95168000D03*
X179451000Y-95168000D03*
X180721000Y-95168000D03*
D13*
X178816000Y-92456000D03*
%TD*%
D11*
%TO.C,Cledout1*%
X182880000Y-79822000D03*
X182880000Y-81722000D03*
%TD*%
D10*
%TO.C,Cled3*%
X182814000Y-97536000D03*
X180914000Y-97536000D03*
%TD*%
D12*
%TO.C,U3*%
X180721000Y-78060000D03*
X179451000Y-78060000D03*
X178181000Y-78060000D03*
X176911000Y-78060000D03*
X176911000Y-83484000D03*
X178181000Y-83484000D03*
X179451000Y-83484000D03*
X180721000Y-83484000D03*
D13*
X178816000Y-80772000D03*
%TD*%
D14*
%TO.C,Rset2*%
X174752000Y-90993500D03*
X174752000Y-93918500D03*
%TD*%
%TO.C,Rset3*%
X174752000Y-102677500D03*
X174752000Y-105602500D03*
%TD*%
D11*
%TO.C,Cledout3*%
X182880000Y-103190000D03*
X182880000Y-105090000D03*
%TD*%
D10*
%TO.C,Cled1*%
X182814000Y-85852000D03*
X180914000Y-85852000D03*
%TD*%
D14*
%TO.C,Rset1*%
X174752000Y-79309500D03*
X174752000Y-82234500D03*
%TD*%
D12*
%TO.C,U5*%
X180721000Y-101428000D03*
X179451000Y-101428000D03*
X178181000Y-101428000D03*
X176911000Y-101428000D03*
X176911000Y-106852000D03*
X178181000Y-106852000D03*
X179451000Y-106852000D03*
X180721000Y-106852000D03*
D13*
X178816000Y-104140000D03*
%TD*%
D15*
%TO.C,Cout2*%
X169164000Y-71102000D03*
X169164000Y-75202000D03*
%TD*%
%TO.C,Cout1*%
X173736000Y-71102000D03*
X173736000Y-75202000D03*
%TD*%
%TO.C,Cin1*%
X133096000Y-85108000D03*
X133096000Y-81008000D03*
%TD*%
D16*
%TO.C,C1*%
X158514000Y-102870000D03*
X154414000Y-102870000D03*
%TD*%
D17*
%TO.C,Rcomp1*%
X151830500Y-85598000D03*
X148905500Y-85598000D03*
%TD*%
D15*
%TO.C,Cout3*%
X164592000Y-75202000D03*
X164592000Y-71102000D03*
%TD*%
D18*
%TO.C,C4*%
X115945000Y-102665000D03*
X115945000Y-105615000D03*
%TD*%
D19*
%TO.C,L1*%
X135048000Y-67310000D03*
X125048000Y-67310000D03*
%TD*%
D14*
%TO.C,Rsnub2*%
X148082000Y-62676500D03*
X148082000Y-59751500D03*
%TD*%
D20*
%TO.C,U1*%
X148844000Y-76454000D03*
D21*
X151782000Y-74504000D03*
X151782000Y-75154000D03*
X151782000Y-75804000D03*
X151782000Y-76454000D03*
X151782000Y-77104000D03*
X151782000Y-77754000D03*
X151782000Y-78404000D03*
X145906000Y-78404000D03*
X145906000Y-77754000D03*
X145906000Y-77104000D03*
X145906000Y-76454000D03*
X145906000Y-75804000D03*
X145906000Y-75154000D03*
X145906000Y-74504000D03*
%TD*%
D22*
%TO.C,D1*%
X146460000Y-67310000D03*
X153260000Y-67310000D03*
%TD*%
D23*
%TO.C,Ccomp2*%
X148893000Y-80899000D03*
X151843000Y-80899000D03*
%TD*%
D24*
%TO.C,R2*%
X136013000Y-97409000D03*
X138938000Y-97409000D03*
%TD*%
D25*
%TO.C,D2*%
X128963500Y-97409000D03*
X131763500Y-97409000D03*
%TD*%
D26*
%TO.C,Cout5*%
X179832000Y-74844000D03*
X179832000Y-70444000D03*
%TD*%
D23*
%TO.C,Ccomp1*%
X140765000Y-91186000D03*
X143715000Y-91186000D03*
%TD*%
D27*
%TO.C,C2*%
X103735000Y-101600000D03*
X107835000Y-101600000D03*
%TD*%
D11*
%TO.C,Cinx1*%
X139700000Y-82693983D03*
X139700000Y-80793983D03*
%TD*%
D24*
%TO.C,Rt1*%
X155509500Y-79502000D03*
X158434500Y-79502000D03*
%TD*%
D23*
%TO.C,Css1*%
X140765000Y-87122000D03*
X143715000Y-87122000D03*
%TD*%
D28*
%TO.C,Csnub2*%
X153096000Y-62484000D03*
X151196000Y-62484000D03*
%TD*%
D14*
%TO.C,R3*%
X108833000Y-112134500D03*
X108833000Y-109209500D03*
%TD*%
D29*
%TO.C,D4*%
X123698000Y-103502000D03*
X123698000Y-106302000D03*
%TD*%
D17*
%TO.C,Rfbb1*%
X158434500Y-85598000D03*
X155509500Y-85598000D03*
%TD*%
D11*
%TO.C,C3*%
X107817000Y-106614000D03*
X107817000Y-104714000D03*
%TD*%
D24*
%TO.C,Rfbt1*%
X155509500Y-91186000D03*
X158434500Y-91186000D03*
%TD*%
D30*
%TO.C,C5*%
X115775000Y-110744000D03*
X112825000Y-110744000D03*
%TD*%
D31*
%TO.C,U2*%
X109976000Y-101665000D03*
X111246000Y-101665000D03*
X112516000Y-101665000D03*
X113786000Y-101665000D03*
X113786000Y-106615000D03*
X112516000Y-106615000D03*
X111246000Y-106615000D03*
X109976000Y-106615000D03*
%TD*%
D11*
%TO.C,Coutx1*%
X154940000Y-74356000D03*
X154940000Y-72456000D03*
%TD*%
D32*
%TO.C,D3*%
X129794000Y-106302000D03*
X129794000Y-103502000D03*
%TD*%
D28*
%TO.C,Csnub1*%
X153096000Y-59944000D03*
X151196000Y-59944000D03*
%TD*%
D33*
%TO.C,R1*%
X154178000Y-106233500D03*
X154178000Y-109158500D03*
%TD*%
D15*
%TO.C,Cout4*%
X160020000Y-75202000D03*
X160020000Y-71102000D03*
%TD*%
%TO.C,Cin2*%
X127508000Y-85108000D03*
X127508000Y-81008000D03*
%TD*%
D14*
%TO.C,Rsnub1*%
X145542000Y-62676500D03*
X145542000Y-59751500D03*
%TD*%
M02*
