%TF.GenerationSoftware,KiCad,Pcbnew,10.0.4*%
%TF.CreationDate,2026-07-21T00:08:11-04:00*%
%TF.ProjectId,burger_king_light-rounded,62757267-6572-45f6-9b69-6e675f6c6967,rev?*%
%TF.SameCoordinates,Original*%
%TF.FileFunction,Soldermask,Top*%
%TF.FilePolarity,Negative*%
%FSLAX46Y46*%
G04 Gerber Fmt 4.6, Leading zero omitted, Abs format (unit mm)*
G04 Created by KiCad (PCBNEW 10.0.4) date 2026-07-21 00:08:11*
%MOMM*%
%LPD*%
G01*
G04 APERTURE LIST*
G04 Aperture macros list*
%AMRoundRect*
0 Rectangle with rounded corners*
0 $1 Rounding radius*
0 $2 $3 $4 $5 $6 $7 $8 $9 X,Y pos of 4 corners*
0 Add a 4 corners polygon primitive as box body*
4,1,4,$2,$3,$4,$5,$6,$7,$8,$9,$2,$3,0*
0 Add four circle primitives for the rounded corners*
1,1,$1+$1,$2,$3*
1,1,$1+$1,$4,$5*
1,1,$1+$1,$6,$7*
1,1,$1+$1,$8,$9*
0 Add four rect primitives between the rounded corners*
20,1,$1+$1,$2,$3,$4,$5,0*
20,1,$1+$1,$4,$5,$6,$7,0*
20,1,$1+$1,$6,$7,$8,$9,0*
20,1,$1+$1,$8,$9,$2,$3,0*%
G04 Aperture macros list end*
%ADD10RoundRect,0.300800X-0.475000X0.250000X-0.475000X-0.250000X0.475000X-0.250000X0.475000X0.250000X0*%
%ADD11RoundRect,0.300799X-1.450001X0.450001X-1.450001X-0.450001X1.450001X-0.450001X1.450001X0.450001X0*%
%ADD12C,3.001600*%
%ADD13C,5.101600*%
%ADD14RoundRect,0.300799X0.450001X1.450001X-0.450001X1.450001X-0.450001X-1.450001X0.450001X-1.450001X0*%
%ADD15RoundRect,0.300800X-0.312500X-0.625000X0.312500X-0.625000X0.312500X0.625000X-0.312500X0.625000X0*%
%ADD16RoundRect,0.300800X0.650000X-0.325000X0.650000X0.325000X-0.650000X0.325000X-0.650000X-0.325000X0*%
%ADD17RoundRect,0.050800X-1.925000X-2.600000X1.925000X-2.600000X1.925000X2.600000X-1.925000X2.600000X0*%
%ADD18RoundRect,0.300800X-0.625000X0.312500X-0.625000X-0.312500X0.625000X-0.312500X0.625000X0.312500X0*%
%ADD19RoundRect,0.050800X0.737500X-0.225000X0.737500X0.225000X-0.737500X0.225000X-0.737500X-0.225000X0*%
%ADD20RoundRect,0.050800X1.230000X-1.155000X1.230000X1.155000X-1.230000X1.155000X-1.230000X-1.155000X0*%
%ADD21RoundRect,0.300800X-0.250000X-0.475000X0.250000X-0.475000X0.250000X0.475000X-0.250000X0.475000X0*%
%ADD22RoundRect,0.300800X-1.000000X1.400000X-1.000000X-1.400000X1.000000X-1.400000X1.000000X1.400000X0*%
%ADD23RoundRect,0.300800X0.325000X0.650000X-0.325000X0.650000X-0.325000X-0.650000X0.325000X-0.650000X0*%
%ADD24RoundRect,0.300800X0.312500X0.625000X-0.312500X0.625000X-0.312500X-0.625000X0.312500X-0.625000X0*%
%ADD25RoundRect,0.050800X0.600000X0.600000X-0.600000X0.600000X-0.600000X-0.600000X0.600000X-0.600000X0*%
%ADD26RoundRect,0.300800X-0.550000X1.250000X-0.550000X-1.250000X0.550000X-1.250000X0.550000X1.250000X0*%
%ADD27RoundRect,0.050800X0.762500X-0.325000X0.762500X0.325000X-0.762500X0.325000X-0.762500X-0.325000X0*%
%ADD28RoundRect,0.050800X-1.145000X-1.145000X1.145000X-1.145000X1.145000X1.145000X-1.145000X1.145000X0*%
%ADD29RoundRect,0.300800X0.300000X-0.300000X0.300000X0.300000X-0.300000X0.300000X-0.300000X-0.300000X0*%
%ADD30RoundRect,0.300800X-0.325000X-0.650000X0.325000X-0.650000X0.325000X0.650000X-0.325000X0.650000X0*%
%ADD31RoundRect,0.200800X0.150000X-0.825000X0.150000X0.825000X-0.150000X0.825000X-0.150000X-0.825000X0*%
%ADD32RoundRect,0.300800X-0.300000X0.300000X-0.300000X-0.300000X0.300000X-0.300000X0.300000X0.300000X0*%
%ADD33RoundRect,0.300800X0.625000X-0.312500X0.625000X0.312500X-0.625000X0.312500X-0.625000X-0.312500X0*%
%ADD34RoundRect,0.300800X-0.550000X0.550000X-0.550000X-0.550000X0.550000X-0.550000X0.550000X0.550000X0*%
%ADD35C,1.701600*%
G04 APERTURE END LIST*
D10*
%TO.C,Cled2*%
X165100000Y-111064000D03*
X165100000Y-112964000D03*
%TD*%
D11*
%TO.C,Cin1*%
X102616000Y-92692000D03*
X102616000Y-96792000D03*
%TD*%
D12*
%TO.C,H8*%
X163576000Y-103124000D03*
D13*
X163576000Y-103124000D03*
%TD*%
D14*
%TO.C,C1*%
X123716000Y-114808000D03*
X119616000Y-114808000D03*
%TD*%
D15*
%TO.C,Rcomp1*%
X118425500Y-97282000D03*
X121350500Y-97282000D03*
%TD*%
D11*
%TO.C,Cout3*%
X145288000Y-83294000D03*
X145288000Y-87394000D03*
%TD*%
D16*
%TO.C,C4*%
X85465000Y-117299000D03*
X85465000Y-114349000D03*
%TD*%
D17*
%TO.C,L1*%
X94568000Y-78994000D03*
X104568000Y-78994000D03*
%TD*%
D18*
%TO.C,Rsnub2*%
X117602000Y-71435500D03*
X117602000Y-74360500D03*
%TD*%
D12*
%TO.C,H3*%
X140634000Y-75946000D03*
D13*
X140634000Y-75946000D03*
%TD*%
D19*
%TO.C,U1*%
X115426000Y-86188000D03*
X115426000Y-86838000D03*
X115426000Y-87488000D03*
X115426000Y-88138000D03*
X115426000Y-88788000D03*
X115426000Y-89438000D03*
X115426000Y-90088000D03*
X121302000Y-90088000D03*
X121302000Y-89438000D03*
X121302000Y-88788000D03*
X121302000Y-88138000D03*
X121302000Y-87488000D03*
X121302000Y-86838000D03*
X121302000Y-86188000D03*
D20*
X118364000Y-88138000D03*
%TD*%
D21*
%TO.C,Cledout2*%
X147386000Y-110998000D03*
X149286000Y-110998000D03*
%TD*%
D22*
%TO.C,D1*%
X122780000Y-78994000D03*
X115980000Y-78994000D03*
%TD*%
D23*
%TO.C,Ccomp2*%
X121363000Y-92583000D03*
X118413000Y-92583000D03*
%TD*%
D24*
%TO.C,R2*%
X108458000Y-109093000D03*
X105533000Y-109093000D03*
%TD*%
D25*
%TO.C,D2*%
X101283500Y-109093000D03*
X98483500Y-109093000D03*
%TD*%
D26*
%TO.C,Cout5*%
X163576000Y-82890000D03*
X163576000Y-87290000D03*
%TD*%
D23*
%TO.C,Ccomp1*%
X113235000Y-102870000D03*
X110285000Y-102870000D03*
%TD*%
D14*
%TO.C,C2*%
X77355000Y-113284000D03*
X73255000Y-113284000D03*
%TD*%
D12*
%TO.C,H6*%
X151892000Y-103124000D03*
D13*
X151892000Y-103124000D03*
%TD*%
D12*
%TO.C,H1*%
X74676000Y-87376000D03*
D13*
X74676000Y-87376000D03*
%TD*%
D10*
%TO.C,Cinx1*%
X109220000Y-92477983D03*
X109220000Y-94377983D03*
%TD*%
D27*
%TO.C,U3*%
X133940000Y-113157000D03*
X133940000Y-114427000D03*
X133940000Y-115697000D03*
X133940000Y-116967000D03*
X139364000Y-116967000D03*
X139364000Y-115697000D03*
X139364000Y-114427000D03*
X139364000Y-113157000D03*
D28*
X136652000Y-115062000D03*
%TD*%
D15*
%TO.C,Rset2*%
X146873500Y-119126000D03*
X149798500Y-119126000D03*
%TD*%
D12*
%TO.C,RV1*%
X90144100Y-120969100D03*
D13*
X90144100Y-120969100D03*
D12*
X96404100Y-120969100D03*
D13*
X96404100Y-120969100D03*
D12*
X102540100Y-120969100D03*
D13*
X102540100Y-120969100D03*
%TD*%
D21*
%TO.C,Cledout1*%
X135702000Y-110998000D03*
X137602000Y-110998000D03*
%TD*%
D12*
%TO.C,H7*%
X163068000Y-75946000D03*
D13*
X163068000Y-75946000D03*
%TD*%
D10*
%TO.C,Cled3*%
X153416000Y-111064000D03*
X153416000Y-112964000D03*
%TD*%
D11*
%TO.C,Cout2*%
X150876000Y-83294000D03*
X150876000Y-87394000D03*
%TD*%
D12*
%TO.C,H4*%
X140462000Y-103124000D03*
D13*
X140462000Y-103124000D03*
%TD*%
D24*
%TO.C,Rt1*%
X127954500Y-91186000D03*
X125029500Y-91186000D03*
%TD*%
D27*
%TO.C,U4*%
X145624000Y-113157000D03*
X145624000Y-114427000D03*
X145624000Y-115697000D03*
X145624000Y-116967000D03*
X151048000Y-116967000D03*
X151048000Y-115697000D03*
X151048000Y-114427000D03*
X151048000Y-113157000D03*
D28*
X148336000Y-115062000D03*
%TD*%
D23*
%TO.C,Css1*%
X113235000Y-98806000D03*
X110285000Y-98806000D03*
%TD*%
D21*
%TO.C,Csnub2*%
X120716000Y-74168000D03*
X122616000Y-74168000D03*
%TD*%
D18*
%TO.C,R3*%
X78353000Y-120893500D03*
X78353000Y-123818500D03*
%TD*%
D29*
%TO.C,D4*%
X93218000Y-117986000D03*
X93218000Y-115186000D03*
%TD*%
D15*
%TO.C,Rset3*%
X158557500Y-119126000D03*
X161482500Y-119126000D03*
%TD*%
%TO.C,Rfbb1*%
X125029500Y-97282000D03*
X127954500Y-97282000D03*
%TD*%
D10*
%TO.C,C3*%
X77337000Y-116398000D03*
X77337000Y-118298000D03*
%TD*%
D21*
%TO.C,Cledout3*%
X159070000Y-110998000D03*
X160970000Y-110998000D03*
%TD*%
D24*
%TO.C,Rfbt1*%
X127954500Y-102870000D03*
X125029500Y-102870000D03*
%TD*%
D10*
%TO.C,Cled1*%
X141732000Y-111064000D03*
X141732000Y-112964000D03*
%TD*%
D30*
%TO.C,C5*%
X82345000Y-122428000D03*
X85295000Y-122428000D03*
%TD*%
D31*
%TO.C,U2*%
X79496000Y-118299000D03*
X80766000Y-118299000D03*
X82036000Y-118299000D03*
X83306000Y-118299000D03*
X83306000Y-113349000D03*
X82036000Y-113349000D03*
X80766000Y-113349000D03*
X79496000Y-113349000D03*
%TD*%
D10*
%TO.C,Coutx1*%
X124460000Y-84140000D03*
X124460000Y-86040000D03*
%TD*%
D27*
%TO.C,U5*%
X157308000Y-113157000D03*
X157308000Y-114427000D03*
X157308000Y-115697000D03*
X157308000Y-116967000D03*
X162732000Y-116967000D03*
X162732000Y-115697000D03*
X162732000Y-114427000D03*
X162732000Y-113157000D03*
D28*
X160020000Y-115062000D03*
%TD*%
D15*
%TO.C,Rset1*%
X135189500Y-119126000D03*
X138114500Y-119126000D03*
%TD*%
D12*
%TO.C,H2*%
X74930000Y-99060000D03*
D13*
X74930000Y-99060000D03*
%TD*%
D32*
%TO.C,D3*%
X99314000Y-115186000D03*
X99314000Y-117986000D03*
%TD*%
D12*
%TO.C,H5*%
X151892000Y-75946000D03*
D13*
X151892000Y-75946000D03*
%TD*%
D21*
%TO.C,Csnub1*%
X120716000Y-71628000D03*
X122616000Y-71628000D03*
%TD*%
D33*
%TO.C,R1*%
X123698000Y-120842500D03*
X123698000Y-117917500D03*
%TD*%
D11*
%TO.C,Cout1*%
X156464000Y-83294000D03*
X156464000Y-87394000D03*
%TD*%
%TO.C,Cout4*%
X139700000Y-83294000D03*
X139700000Y-87394000D03*
%TD*%
%TO.C,Cin2*%
X97028000Y-92692000D03*
X97028000Y-96792000D03*
%TD*%
D18*
%TO.C,Rsnub1*%
X115062000Y-71435500D03*
X115062000Y-74360500D03*
%TD*%
D34*
%TO.C,Cbulk1*%
X85090000Y-92378149D03*
D35*
X85090000Y-95878149D03*
%TD*%
M02*
