M48
; DRILL file KiCad 10.0.4 date 2026-07-21T00:08:21
; FORMAT={-:-/ absolute / metric / decimal}
; #@! TF.CreationDate,2026-07-21T00:08:21-04:00
; #@! TF.GenerationSoftware,Kicad,Pcbnew,10.0.4
; #@! TF.FileFunction,Plated,1,2,PTH
FMAT,2
METRIC
; #@! TA.AperFunction,Plated,PTH,ViaDrill
T1C0.254
; #@! TA.AperFunction,Plated,PTH,ViaDrill
T2C0.305
; #@! TA.AperFunction,Plated,PTH,ComponentDrill
T3C0.800
; #@! TA.AperFunction,Plated,PTH,ComponentDrill
T4C2.500
%
G90
G05
T1
X115.316Y-91.694
X116.84Y-91.694
X117.602Y-87.376
X117.602Y-88.011
X117.602Y-88.773
X118.364Y-87.376
X118.364Y-88.011
X118.364Y-88.773
X119.126Y-87.376
X119.126Y-88.011
X119.126Y-88.773
X119.634Y-89.662
X119.634Y-90.932
X122.428Y-86.106
X122.428Y-86.868
X122.428Y-87.63
X123.698Y-88.138
X124.968Y-89.154
T2
X70.612Y-110.96
X70.612Y-116.44
X70.612Y-121.92
X72.136Y-123.952
X72.752Y-108.712
X74.676Y-116.44
X74.676Y-121.92
X75.946Y-123.952
X78.232Y-108.712
X82.804Y-101.6
X82.804Y-102.616
X83.712Y-108.712
X83.82Y-101.6
X83.82Y-102.616
X84.836Y-116.332
X84.836Y-118.872
X85.09Y-111.76
X85.852Y-101.6
X85.852Y-102.616
X86.868Y-101.6
X86.868Y-102.616
X86.868Y-121.92
X87.122Y-116.078
X88.392Y-113.284
X88.7Y-108.712
X89.154Y-101.6
X89.154Y-102.616
X90.17Y-101.6
X90.17Y-102.616
X91.186Y-115.062
X91.694Y-111.76
X92.456Y-101.6
X92.456Y-102.616
X93.472Y-101.6
X93.472Y-102.616
X94.18Y-108.712
X95.758Y-101.6
X95.758Y-102.616
X96.012Y-113.538
X96.774Y-101.6
X96.774Y-102.616
X97.79Y-111.76
X100.33Y-113.792
X101.092Y-115.316
X102.108Y-112.014
X105.41Y-117.602
X106.426Y-112.014
X106.426Y-120.142
X106.426Y-123.952
X110.998Y-112.014
X111.506Y-123.952
X115.062Y-112.014
X116.586Y-123.952
X116.84Y-69.342
X117.348Y-101.6
X117.348Y-102.616
X118.364Y-101.6
X118.364Y-102.616
X118.872Y-112.014
X120.396Y-101.6
X120.396Y-102.616
X120.65Y-118.11
X120.65Y-121.412
X121.412Y-101.6
X121.412Y-102.616
X121.666Y-123.952
X127.762Y-122.936
X129.032Y-111.76
X129.032Y-112.776
X129.032Y-114.808
X129.032Y-115.824
X129.54Y-98.044
X129.54Y-101.092
X130.048Y-111.76
X130.048Y-112.776
X130.048Y-114.808
X130.048Y-115.824
X131.064Y-102.616
X134.366Y-122.936
X135.89Y-97.536
X136.144Y-113.03
X136.652Y-120.904
X136.906Y-117.348
X137.668Y-108.966
X139.7Y-108.966
X139.7Y-111.506
X139.954Y-119.126
X139.954Y-120.142
X140.97Y-119.126
X140.97Y-120.142
X141.224Y-114.808
X141.224Y-117.094
X141.732Y-123.19
X142.748Y-115.316
X143.256Y-113.03
X144.018Y-124.206
X144.272Y-107.696
X144.78Y-123.19
X145.288Y-97.536
X145.796Y-92.964
X145.796Y-93.98
X146.812Y-92.964
X146.812Y-93.98
X147.828Y-113.03
X148.082Y-97.536
X148.336Y-120.65
X148.59Y-117.602
X148.844Y-92.964
X148.844Y-93.98
X149.606Y-108.966
X149.86Y-92.964
X149.86Y-93.98
X151.384Y-108.966
X151.384Y-111.76
X151.638Y-118.618
X151.638Y-119.634
X152.146Y-92.964
X152.146Y-93.98
X152.654Y-118.618
X152.908Y-114.808
X153.162Y-92.964
X153.162Y-93.98
X153.924Y-121.412
X154.686Y-114.554
X154.94Y-113.284
X155.448Y-92.964
X155.448Y-93.98
X156.464Y-92.964
X156.464Y-93.98
X156.464Y-107.696
X157.226Y-97.536
X158.75Y-92.964
X158.75Y-93.98
X159.512Y-113.03
X159.766Y-92.964
X159.766Y-93.98
X159.766Y-97.536
X160.274Y-117.602
X160.274Y-120.904
X161.29Y-108.966
X163.068Y-108.966
X163.068Y-111.76
X163.576Y-118.872
X163.576Y-119.888
X164.592Y-118.872
X164.592Y-119.888
X164.846Y-114.554
X166.624Y-114.3
X166.878Y-113.03
X167.386Y-86.36
X167.386Y-89.916
X167.386Y-95.25
X167.64Y-97.536
X168.148Y-84.328
X168.402Y-108.712
X168.504Y-106.68
T3
X85.09Y-92.378
X85.09Y-95.878
T4
X74.676Y-87.376
X74.93Y-99.06
X90.144Y-120.969
X96.404Y-120.969
X102.54Y-120.969
X140.462Y-103.124
X140.634Y-75.946
X151.892Y-75.946
X151.892Y-103.124
X163.068Y-75.946
X163.576Y-103.124
M30
